HIERARCHY
ROOT Hips
{
	OFFSET 56.877701 -32.693596 43.373703
	CHANNELS 6 Xposition Yposition Zposition Zrotation Xrotation Yrotation
	JOINT Chest
	{
		OFFSET -0.779999 1.005800 5.403099
		CHANNELS 6 Xposition Yposition Zposition Zrotation Xrotation Yrotation
		JOINT Chest2
		{
			OFFSET 0.000000 0.000000 4.236801
			CHANNELS 6 Xposition Yposition Zposition Zrotation Xrotation Yrotation
			JOINT Neck
			{
				OFFSET 0.000000 0.000000 9.874401
				CHANNELS 6 Xposition Yposition Zposition Zrotation Xrotation Yrotation
				JOINT Head
				{
					OFFSET 0.000000 0.000002 2.173893
					CHANNELS 6 Xposition Yposition Zposition Zrotation Xrotation Yrotation
					End Site
					{
						OFFSET 0.000000 0.000000 6.508102
					}
				}
			}
			JOINT LeftCollar
			{
				OFFSET 2.681599 -0.377600 5.432499
				CHANNELS 6 Xposition Yposition Zposition Zrotation Xrotation Yrotation
				JOINT LeftShoulder
				{
					OFFSET 5.161499 0.000000 0.000000
					CHANNELS 6 Xposition Yposition Zposition Zrotation Xrotation Yrotation
					JOINT LeftElbow
					{
						OFFSET 0.000000 0.000000 -10.869099
						CHANNELS 6 Xposition Yposition Zposition Zrotation Xrotation Yrotation
						JOINT LeftWrist
						{
							OFFSET 0.000000 0.000000 -13.344799
							CHANNELS 6 Xposition Yposition Zposition Zrotation Xrotation Yrotation
							End Site
							{
								OFFSET 0.000000 0.000000 -2.173901
							}
						}
					}
				}
			}
			JOINT RightCollar
			{
				OFFSET -2.381901 -1.419600 6.136600
				CHANNELS 6 Xposition Yposition Zposition Zrotation Xrotation Yrotation
				JOINT RightShoulder
				{
					OFFSET -4.550499 0.000000 0.000000
					CHANNELS 6 Xposition Yposition Zposition Zrotation Xrotation Yrotation
					JOINT RightElbow
					{
						OFFSET 0.000000 0.000000 -11.106499
						CHANNELS 6 Xposition Yposition Zposition Zrotation Xrotation Yrotation
						JOINT RightWrist
						{
							OFFSET 0.000000 0.000000 -12.874298
							CHANNELS 6 Xposition Yposition Zposition Zrotation Xrotation Yrotation
							End Site
							{
								OFFSET 0.000000 0.000000 -2.173901
							}
						}
					}
				}
			}
		}
	}
	JOINT LeftHip
	{
		OFFSET 2.431900 0.469601 -2.489399
		CHANNELS 6 Xposition Yposition Zposition Zrotation Xrotation Yrotation
		JOINT LeftKnee
		{
			OFFSET 0.000000 -0.000004 -18.200201
			CHANNELS 6 Xposition Yposition Zposition Zrotation Xrotation Yrotation
			JOINT LeftAnkle
			{
				OFFSET 0.000000 0.000000 -16.279900
				CHANNELS 6 Xposition Yposition Zposition Zrotation Xrotation Yrotation
				End Site
				{
					OFFSET 0.000000 -8.394100 0.000000
				}
			}
		}
	}
	JOINT RightHip
	{
		OFFSET -1.987999 -0.073502 -2.713001
		CHANNELS 6 Xposition Yposition Zposition Zrotation Xrotation Yrotation
		JOINT RightKnee
		{
			OFFSET 0.000000 -0.000004 -19.547802
			CHANNELS 6 Xposition Yposition Zposition Zrotation Xrotation Yrotation
			JOINT RightAnkle
			{
				OFFSET 0.000000 0.000000 -14.881199
				CHANNELS 6 Xposition Yposition Zposition Zrotation Xrotation Yrotation
				End Site
				{
					OFFSET 0.000000 -7.922699 0.000000
				}
			}
		}
	}
}
MOTION
Frames: 8
Frame Time: 0.041667
68.626709 -39.311398 41.902302 4328.988758 16.297952 -13.151221 -0.779997 1.005806 5.403093 -5.226471 -13.955890 -4.831022 0.000011 -0.000004 4.236794 15.869748 2.029151 2.066519 0.000009 -0.000005 9.874401 -25.603816 -8.125862 32.302936 0.000005 0.000003 2.173886 -2.946686 3.829562 -5.672693 2.681604 -0.377600 5.432501 1.881255 -2.044419 1.113309 5.161500 0.000000 -0.000000 162.217321 -168.274305 96.288879 0.000002 0.000005 -10.869097 -7.710806 -7.789172 4.206815 -0.000004 0.000000 -13.344812 -45.353337 -33.153830 15.365318 -2.381900 -1.419597 6.136597 26.529983 22.210541 33.979293 -4.550503 -0.000003 -0.000002 -1166.873998 -527.820299 -430.071549 -0.000002 -0.000012 -11.106508 724.700611 -28.074451 712.491183 0.000004 -0.000004 -12.874308 -279.855690 3.083920 66.396972 2.431897 0.469603 -2.489393 -335.109025 -30.264763 25.231947 -0.000005 -0.000010 -18.200207 333.441830 51.559923 16.412980 0.000001 0.000000 -16.279892 -7.267093 28.436108 -11.480037 -1.987994 -0.073494 -2.712999 -51.562672 -38.152928 -34.591111 -0.000002 -0.000009 -19.547796 -1815.805900 46.521948 10.107759 -0.000003 -0.000003 -14.881193 2228.817713 77.427789 -393.530911
68.646202 -39.340900 41.921204 4328.786803 16.351125 -13.186888 -0.780006 1.005799 5.403100 -5.003817 -14.016586 -4.748560 0.000012 -0.000003 4.236791 15.863364 2.123728 2.087523 0.000004 0.000003 9.874403 -25.685594 -8.107120 32.331715 0.000003 -0.000000 2.173903 -2.775198 3.718276 -5.657280 2.681608 -0.377604 5.432509 2.341145 -2.369148 1.189770 5.161497 0.000001 -0.000003 161.496244 -168.891932 96.114040 -0.000001 0.000003 -10.869112 -7.334388 -7.620044 4.347593 -0.000008 -0.000004 -13.344809 -45.012781 -33.022732 15.534932 -2.381891 -1.419600 6.136599 26.535813 22.060659 34.331662 -4.550500 -0.000004 0.000013 -1166.675650 -527.501411 -430.226731 0.000001 0.000001 -11.106515 725.129383 -27.844975 712.752807 0.000002 0.000002 -12.874287 -280.160208 3.009534 66.388407 2.431891 0.469597 -2.489395 -334.950291 -30.202178 25.257939 0.000003 -0.000010 -18.200203 333.294599 51.523843 16.487984 -0.000002 0.000004 -16.279894 -7.457988 28.501365 -11.239865 -1.988009 -0.073503 -2.712997 -51.311475 -38.185142 -34.441704 -0.000009 -0.000001 -19.547798 -1815.648751 46.503107 9.986484 0.000005 0.000006 -14.881193 2228.728975 77.471141 -393.508153
68.661903 -39.374096 41.943901 4328.639927 16.421132 -13.248544 -0.779988 1.005806 5.403100 -4.824745 -14.073624 -4.666817 0.000006 -0.000000 4.236794 15.932683 2.155660 2.109075 0.000003 -0.000013 9.874402 -25.764018 -8.121889 32.328621 -0.000007 0.000001 2.173885 -2.762860 3.786141 -5.688214 2.681596 -0.377608 5.432508 2.429670 -2.402676 1.212000 5.161503 0.000002 0.000008 161.256026 -169.065733 96.073386 0.000001 -0.000002 -10.869094 -7.175846 -7.607426 4.355062 -0.000004 -0.000007 -13.344806 -44.916478 -33.000472 15.476270 -2.381902 -1.419601 6.136595 26.500985 21.854517 34.494941 -4.550487 -0.000014 0.000000 -1166.648220 -527.492450 -430.427539 -0.000005 0.000003 -11.106503 725.250960 -27.762460 712.863347 0.000002 0.000002 -12.874283 -280.397215 2.973476 66.361585 2.431911 0.469601 -2.489388 -334.857209 -30.129607 25.272853 0.000011 -0.000008 -18.200201 332.841074 51.403447 16.739831 -0.000000 0.000000 -16.279892 -7.555315 28.417350 -10.881868 -1.987988 -0.073496 -2.712994 -51.051043 -38.244357 -34.276235 -0.000007 0.000003 -19.547806 -1815.158507 46.538331 9.654216 -0.000001 0.000013 -14.881198 2228.193707 77.431963 -393.232213
68.676292 -39.399998 41.962105 4328.638616 16.495581 -13.439516 -0.779993 1.005796 5.403093 -4.766636 -14.191285 -4.389906 0.000004 0.000004 4.236795 16.053465 2.178354 2.148887 0.000005 0.000006 9.874400 -25.888787 -8.035118 32.182639 0.000012 0.000003 2.173895 -2.769961 3.838472 -5.673032 2.681606 -0.377597 5.432501 2.453670 -2.169847 1.083825 5.161501 -0.000004 0.000002 160.962068 -169.191463 95.970824 -0.000001 -0.000004 -10.869106 -6.793943 -7.591171 4.338812 -0.000006 -0.000002 -13.344810 -44.770124 -32.970956 15.537671 -2.381891 -1.419594 6.136596 26.694567 21.711435 34.411900 -4.550494 -0.000011 0.000003 -1166.838372 -527.506329 -430.629931 -0.000001 -0.000008 -11.106504 725.378275 -27.667727 712.965745 -0.000005 0.000006 -12.874290 -280.533354 3.021913 66.351579 2.431901 0.469596 -2.489395 -334.952969 -30.116466 25.325479 -0.000001 -0.000007 -18.200203 332.505165 51.283594 17.067557 -0.000001 0.000001 -16.279903 -7.579531 28.376962 -10.623202 -1.987998 -0.073500 -2.713003 -51.283468 -38.313902 -34.382629 0.000004 -0.000003 -19.547804 -1814.975349 46.563111 9.748499 -0.000003 -0.000002 -14.881195 2227.997872 77.550705 -392.990835
68.682198 -39.428394 41.980309 4328.776749 16.453181 -13.541470 -0.780000 1.005796 5.403104 -4.898542 -14.194344 -4.189701 0.000004 0.000001 4.236798 16.147500 2.088586 2.142031 -0.000006 -0.000002 9.874409 -25.986880 -7.887722 32.046250 0.000011 0.000005 2.173901 -2.708386 3.904623 -5.543247 2.681594 -0.377605 5.432506 2.283667 -1.949271 0.923783 5.161495 -0.000005 -0.000002 160.984185 -168.854379 95.988275 0.000004 -0.000003 -10.869089 -6.964536 -7.538326 4.270781 0.000000 -0.000001 -13.344817 -44.743449 -33.114407 15.472463 -2.381909 -1.419597 6.136603 26.778634 21.830483 34.036950 -4.550504 -0.000008 0.000010 -1166.942847 -527.685170 -430.579005 0.000003 -0.000001 -11.106504 725.555149 -27.595042 713.022572 0.000001 -0.000004 -12.874311 -280.660451 3.015982 66.486940 2.431906 0.469599 -2.489397 -335.224592 -30.098789 25.216234 0.000002 -0.000010 -18.200207 332.362988 51.227717 17.258134 0.000000 -0.000007 -16.279894 -7.843636 28.356271 -10.231465 -1.988001 -0.073502 -2.712996 -51.602636 -38.237718 -34.479130 -0.000009 -0.000003 -19.547806 -1814.676788 46.616673 9.743525 0.000009 -0.000002 -14.881202 2227.206881 77.605777 -392.466139
68.690498 -39.457195 41.999302 4328.993130 16.382651 -13.586203 -0.779996 1.005789 5.403091 -5.132951 -14.195717 -4.034303 0.000006 0.000001 4.236795 16.209053 2.080897 2.190504 -0.000004 -0.000003 9.874397 -26.132230 -7.846109 31.816807 0.000007 0.000007 2.173882 -2.691571 3.932326 -5.502353 2.681602 -0.377597 5.432499 2.449141 -1.697329 0.724184 5.161501 -0.000002 0.000010 160.626829 -168.565121 95.978249 -0.000003 0.000005 -10.869104 -7.002276 -7.406608 4.140270 0.000008 -0.000006 -13.344798 -44.639562 -33.124444 15.481501 -2.381899 -1.419596 6.136589 27.120352 21.525635 34.006187 -4.550494 -0.000003 0.000009 -1167.047540 -527.421853 -430.865026 0.000008 0.000004 -11.106504 725.395596 -27.470012 712.936184 0.000001 0.000002 -12.874300 -280.553435 3.026901 66.530530 2.431902 0.469594 -2.489397 -335.564598 -30.089941 25.047794 0.000002 -0.000005 -18.200201 333.223237 51.257636 16.774502 0.000013 0.000001 -16.279896 -8.612113 28.492829 -9.980448 -1.987996 -0.073503 -2.712999 -51.948954 -38.104399 -34.585356 0.000003 0.000001 -19.547798 -1814.326208 46.638902 9.685796 -0.000003 -0.000002 -14.881190 2226.343108 77.593312 -391.996742
68.706299 -39.489491 42.018398 4328.938051 16.397764 -13.584871 -0.779998 1.005802 5.403100 -5.075396 -14.260503 -4.022327 0.000003 0.000003 4.236796 16.228152 2.071995 2.204290 0.000004 0.000005 9.874403 -25.987529 -7.703500 31.709689 0.000004 0.000001 2.173904 -2.874844 3.992513 -5.446172 2.681595 -0.377597 5.432501 2.038500 -1.287481 0.601630 5.161504 0.000000 0.000006 161.012380 -167.607665 96.107141 0.000003 0.000000 -10.869093 -7.627565 -7.297513 3.990548 0.000000 -0.000011 -13.344806 -44.687243 -33.099647 15.446331 -2.381903 -1.419594 6.136597 27.388507 21.838514 33.775029 -4.550494 -0.000014 0.000006 -1167.359543 -527.466932 -430.716155 0.000005 -0.000013 -11.106505 725.188505 -27.469566 712.775538 0.000001 -0.000004 -12.874289 -280.357463 3.057830 66.540721 2.431897 0.469604 -2.489389 -335.668062 -30.075416 24.925018 -0.000001 -0.000010 -18.200199 333.781236 51.211471 16.483881 0.000011 -0.000001 -16.279892 -9.101618 28.743973 -9.810027 -1.987998 -0.073494 -2.712996 -51.782543 -38.090794 -34.554583 0.000013 -0.000003 -19.547802 -1813.895414 46.688250 9.450365 0.000004 0.000006 -14.881197 2224.850302 77.539340 -390.948909
68.724403 -39.520599 42.035400 4328.936303 16.431828 -13.578047 -0.779998 1.005806 5.403096 -5.064594 -14.327377 -4.100575 -0.000000 0.000008 4.236794 16.178300 2.142562 2.216948 0.000004 0.000004 9.874407 -25.766262 -7.681756 31.742109 0.000010 0.000006 2.173895 -2.945700 3.960766 -5.364286 2.681600 -0.377597 5.432501 2.038291 -1.271552 0.638976 5.161506 -0.000005 -0.000006 161.031559 -167.377952 96.203030 0.000002 -0.000004 -10.869108 -7.831386 -7.238249 3.924995 -0.000002 -0.000009 -13.344817 -44.634200 -33.049629 15.464636 -2.381906 -1.419596 6.136599 27.468922 21.958440 33.891986 -4.550505 -0.000001 0.000004 -1167.383585 -527.356993 -430.645777 -0.000002 -0.000009 -11.106506 725.229869 -27.440017 712.801001 0.000003 -0.000007 -12.874298 -280.332738 3.069209 66.559121 2.431899 0.469605 -2.489397 -335.793929 -30.154715 24.821978 0.000013 -0.000011 -18.200197 334.346065 51.242699 16.259943 -0.000003 0.000002 -16.279892 -9.530560 29.036989 -9.800023 -1.988000 -0.073493 -2.713003 -51.766892 -38.056130 -34.634131 0.000005 -0.000000 -19.547796 -1813.862192 46.656527 9.467632 -0.000000 0.000004 -14.881195 2223.968825 77.745134 -390.160268
